<svg width="264" height="264" viewBox="0 0 264 264" fill="none" xmlns="http://www.w3.org/2000/svg">
<path d="M127.634 250.626C130.673 250.714 133.188 253.396 133.099 256.483C133.009 259.57 130.343 262.085 127.304 261.997C125.785 261.953 124.396 261.273 123.403 260.203L124.275 259.364C125.051 260.235 126.138 260.811 127.338 260.846C129.705 260.914 131.764 258.893 131.835 256.446C131.907 253.983 129.968 251.846 127.601 251.778C126.401 251.743 125.282 252.255 124.458 253.079L123.635 252.191C124.689 251.197 126.115 250.582 127.634 250.626Z" fill="white"/>
<path d="M113.392 249.231C115.682 249.604 117.305 251.878 116.927 254.2C116.549 256.521 114.29 258.147 112 257.774C109.71 257.401 108.1 255.145 108.478 252.824C108.857 250.502 111.102 248.858 113.392 249.231ZM113.22 250.289C111.609 250.027 110.011 251.274 109.726 253.027C109.443 254.764 110.562 256.454 112.173 256.716C113.799 256.981 115.397 255.734 115.68 253.997C115.965 252.244 114.846 250.554 113.22 250.289Z" fill="white"/>
<path d="M90.5883 252.457C88.9429 251.929 88.1907 250.293 88.7627 248.51L90.3711 243.498L91.5138 243.865L89.9543 248.725C89.5436 250.004 90.0017 251.143 91.0682 251.485C92.3175 251.886 93.47 251.331 93.8513 250.143L95.4597 245.131L96.6024 245.497L95.0429 250.357C94.6322 251.637 95.0903 252.775 96.1568 253.117C97.4061 253.518 98.5586 252.964 98.9399 251.775L100.548 246.763L101.691 247.13L99.1635 255.006L98.0208 254.639L98.3924 253.482C97.7323 254.177 96.7129 254.421 95.6769 254.089C94.4885 253.708 93.7694 252.755 93.6703 251.597C93.0228 252.515 91.7766 252.838 90.5883 252.457Z" fill="white"/>
<path d="M78.5051 249.01C78.9122 249.197 79.0785 249.678 78.8982 250.071C78.7246 250.449 78.2511 250.636 77.8439 250.449C77.4514 250.269 77.2851 249.788 77.4587 249.41C77.639 249.017 78.1125 248.83 78.5051 249.01ZM83.138 240.38L79.6854 247.897L78.5948 247.396L82.0474 239.879L83.138 240.38Z" fill="white"/>
<path d="M67.5262 241.818C65.9522 240.896 65.5189 239.103 66.4652 237.488L69.1259 232.946L70.1614 233.552L67.5815 237.956C66.9022 239.116 67.1568 240.359 68.2061 240.973C69.4073 241.677 70.9085 241.425 71.4908 240.431L74.1515 235.889L75.1871 236.495L71.0059 243.633L69.9704 243.026L70.6417 241.881C69.7827 242.397 68.5341 242.408 67.5262 241.818Z" fill="white"/>
<path d="M52.5379 231.288L51.5885 230.554L56.1103 224.706C57.4121 223.023 59.6613 222.86 61.5474 224.318C62.6108 225.14 63.3143 226.271 63.5178 227.237L62.5226 227.661C62.3882 226.788 61.8284 225.89 61.0183 225.264C59.5119 224.1 58.0483 224.161 57.0598 225.44L56.2376 226.503C57.3606 226.097 58.568 226.262 59.606 227.064C61.3656 228.425 61.6205 230.684 60.2111 232.507C58.8017 234.33 56.5599 234.639 54.8004 233.279C53.7623 232.477 53.2988 231.35 53.409 230.161L52.5379 231.288ZM58.773 227.775C57.4818 226.777 55.8461 227.009 54.8184 228.338C53.8005 229.655 53.9877 231.296 55.2789 232.294C56.5574 233.282 58.1931 233.05 59.211 231.734C60.2387 230.405 60.0516 228.764 58.773 227.775Z" fill="white"/>
<path d="M41.8889 209.245C42.6398 210.119 43.1463 211.371 43.1861 212.645L42.1119 212.745C42.0185 211.58 41.6702 210.635 41.0758 209.943C40.3667 209.118 39.4986 208.894 38.9039 209.405C38.2243 209.989 38.6315 210.904 39.1188 211.962C39.9854 213.854 40.0369 214.823 39.1388 215.594C37.998 216.574 36.4807 216.233 35.4066 214.983C34.7392 214.206 34.3179 213.176 34.1812 212.133L35.2606 211.965C35.4023 212.94 35.74 213.726 36.2197 214.284C36.8245 214.988 37.6406 215.299 38.2475 214.778C38.7936 214.309 38.5672 213.702 37.9424 212.214C37.3923 210.935 36.8353 209.6 38.0247 208.578C39.1777 207.587 40.7731 207.947 41.8889 209.245Z" fill="white"/>
<path d="M33.6108 198.383C34.9013 200.311 34.3471 203.05 32.3924 204.358C30.4376 205.666 27.7073 205.125 26.4168 203.197C25.1263 201.269 25.6761 198.552 27.6308 197.244C29.5855 195.936 32.3203 196.455 33.6108 198.383ZM32.7198 198.979C31.812 197.623 29.8099 197.307 28.3339 198.295C26.8712 199.273 26.3999 201.244 27.3077 202.601C28.2245 203.97 30.2265 204.286 31.6893 203.307C33.1653 202.32 33.6366 200.349 32.7198 198.979Z" fill="white"/>
<path d="M25.7026 184.804C26.7272 186.886 25.8162 189.527 23.7059 190.566C21.5955 191.604 18.9606 190.707 17.936 188.626C16.9114 186.544 17.8152 183.924 19.9255 182.886C22.0358 181.847 24.6781 182.723 25.7026 184.804ZM24.7408 185.277C24.02 183.813 22.0772 183.236 20.4837 184.02C18.9046 184.797 18.1771 186.688 18.8979 188.153C19.6257 189.631 21.5685 190.209 23.1476 189.432C24.7412 188.647 25.4686 186.756 24.7408 185.277Z" fill="white"/>
<path d="M11.4325 172.998C10.8431 171.271 11.6862 169.631 13.4578 169.026L18.4395 167.326L18.8273 168.461L13.997 170.11C12.7251 170.544 12.1058 171.652 12.4988 172.803C12.9486 174.12 14.2498 174.91 15.34 174.538L20.3217 172.837L20.7095 173.973L12.8811 176.645L12.4933 175.51L13.7501 175.08C12.7621 174.911 11.81 174.103 11.4325 172.998Z" fill="white"/>
<path d="M8.92363 151.042C8.53297 151.098 8.2448 151.043 8.0591 150.876C7.8734 150.708 7.76158 150.493 7.72363 150.229C7.68416 149.954 7.72995 149.711 7.86099 149.498C7.99052 149.274 8.25061 149.135 8.64127 149.078C9.02136 149.024 9.31029 149.085 9.50807 149.261C9.70432 149.427 9.82219 149.647 9.86166 149.921C9.89961 150.185 9.84778 150.424 9.70617 150.639C9.56457 150.853 9.30372 150.988 8.92363 151.042Z" fill="white"/>
<path d="M13.4848 125.368C13.3401 128.404 10.6116 130.869 7.52712 130.722C4.44261 130.575 1.97695 127.863 2.12168 124.826C2.19404 123.308 2.90034 121.932 3.98792 120.959L4.81057 121.847C3.92544 122.606 3.3295 123.682 3.27237 124.881C3.15964 127.246 5.14206 129.343 7.58729 129.46C10.0485 129.577 12.2214 127.678 12.3341 125.313C12.3912 124.114 11.9004 122.986 11.0914 122.146L11.9948 121.34C12.9689 122.412 13.5571 123.849 13.4848 125.368Z" fill="white"/>
<path d="M15.1453 111.156C14.7297 113.439 12.4252 115.019 10.1113 114.598C7.79728 114.177 6.2136 111.888 6.62917 109.606C7.04474 107.324 9.33059 105.756 11.6446 106.177C13.9586 106.598 15.5608 108.874 15.1453 111.156ZM14.0906 110.964C14.3829 109.358 13.1655 107.738 11.4182 107.42C9.6866 107.105 7.97618 108.192 7.68385 109.798C7.38865 111.419 8.60612 113.04 10.3377 113.355C12.085 113.673 13.7954 112.585 14.0906 110.964Z" fill="white"/>
<path d="M12.3456 88.2998C12.9041 86.6646 14.5539 85.943 16.3255 86.5478L21.3071 88.2487L20.9193 89.3843L16.089 87.7351C14.8171 87.3009 13.6704 87.7378 13.3084 88.7976C12.8843 90.0392 13.4172 91.2018 14.5982 91.605L19.5798 93.3059L19.192 94.4415L14.3618 92.7923C13.0899 92.358 11.9431 92.7949 11.5811 93.8548C11.1571 95.0964 11.6899 96.2589 12.871 96.6622L17.8526 98.3631L17.4647 99.4987L9.63645 96.8258L10.0243 95.6902L11.1751 96.0831C10.4919 95.4103 10.2667 94.3866 10.6183 93.357C11.0217 92.176 11.9883 91.4747 13.1475 91.3971C12.2417 90.7328 11.9422 89.4809 12.3456 88.2998Z" fill="white"/>
<path d="M16.0169 76.286C15.8224 76.6896 15.338 76.8469 14.9488 76.6594C14.5741 76.4788 14.3954 76.002 14.5899 75.5984C14.7775 75.2093 15.2619 75.0519 15.6366 75.2325C16.0258 75.4201 16.2045 75.8969 16.0169 76.286ZM24.5597 81.0775L17.1078 77.4866L17.6289 76.4057L25.0808 79.9966L24.5597 81.0775Z" fill="white"/>
<path d="M23.4139 65.4444C24.365 63.888 26.1657 63.488 27.7632 64.4639L32.2554 67.208L31.6297 68.232L27.274 65.5713C26.1271 64.8706 24.8794 65.1021 24.2453 66.1397C23.5195 67.3275 23.7433 68.833 24.7264 69.4335L29.2186 72.1776L28.5929 73.2016L21.5338 68.8894L22.1595 67.8654L23.2928 68.5577C22.7921 67.6894 22.8049 66.441 23.4139 65.4444Z" fill="white"/>
<path d="M34.2228 50.6575L34.9744 49.722L40.7376 54.3509C42.3967 55.6835 42.5171 57.9349 41.0239 59.7934C40.1821 60.8411 39.0387 61.5235 38.0687 61.7089L37.6634 60.7062C38.5383 60.588 39.4465 60.0451 40.0879 59.2468C41.2804 57.7626 41.2459 56.2983 39.986 55.2864L38.9381 54.4448C39.3232 55.5749 39.1358 56.7788 38.3141 57.8016C36.9211 59.5353 34.6566 59.7482 32.8603 58.3054C31.0639 56.8626 30.7961 54.6159 32.1891 52.8821C33.0108 51.8594 34.1463 51.4169 35.333 51.5492L34.2228 50.6575ZM37.6186 56.9557C38.6407 55.6835 38.4392 54.044 37.1293 52.992C35.832 51.95 34.1873 52.1066 33.1652 53.3788C32.153 54.6386 32.3546 56.2781 33.652 57.3201C34.9618 58.3721 36.6064 58.2155 37.6186 56.9557Z" fill="white"/>
<path d="M56.4634 40.4227C55.5758 41.157 54.3141 41.6401 53.0397 41.656L52.9595 40.5803C54.1255 40.5087 55.0772 40.1781 55.78 39.5968C56.6183 38.9033 56.859 38.0397 56.3591 37.4357C55.7879 36.7454 54.8646 37.1354 53.7976 37.6028C51.8893 38.4339 50.9201 38.4673 50.1653 37.5552C49.2064 36.3965 49.5764 34.886 50.8462 33.8356C51.6352 33.1828 52.6733 32.7809 53.7186 32.6637L53.8664 33.7458C52.8887 33.8694 52.0967 34.1923 51.5296 34.6614C50.8146 35.253 50.4881 36.063 50.9981 36.6793C51.4571 37.234 52.0684 37.019 53.5681 36.4221C54.8566 35.8961 56.2025 35.3642 57.2021 36.5722C58.1712 37.7432 57.7825 39.3314 56.4634 40.4227Z" fill="white"/>
<path d="M67.4794 32.3501C65.5276 33.6043 62.7992 32.9991 61.5275 31.0206C60.2557 29.0421 60.8473 26.3227 62.7991 25.0686C64.7509 23.8144 67.4573 24.4148 68.729 26.3933C70.0007 28.3718 69.4312 31.096 67.4794 32.3501ZM66.8998 31.4484C68.2728 30.5661 68.6259 28.5706 67.6656 27.0766C66.7139 25.596 64.7518 25.0881 63.3788 25.9703C61.9923 26.8612 61.6392 28.8568 62.5909 30.3373C63.5512 31.8313 65.5133 32.3392 66.8998 31.4484Z" fill="white"/>
<path d="M81.2053 24.6978C79.105 25.6832 76.4804 24.723 75.4811 22.5938C74.4818 20.4647 75.4274 17.8472 77.5277 16.8618C79.628 15.8764 82.2313 16.8289 83.2306 18.958C84.2299 21.0872 83.3056 23.7123 81.2053 24.6978ZM80.7498 23.7273C82.2273 23.0341 82.8408 21.1027 82.0863 19.4949C81.3385 17.9017 79.4606 17.1391 77.9832 17.8323C76.4912 18.5322 75.8777 20.4637 76.6254 22.057C77.38 23.6647 79.2579 24.4273 80.7498 23.7273Z" fill="white"/>
<path d="M93.2765 10.6515C95.0133 10.0944 96.6379 10.968 97.2098 12.7505L98.8181 17.7628L97.6754 18.1293L96.116 13.2693C95.7054 11.9896 94.6096 11.3497 93.4517 11.7211C92.1262 12.1463 91.3122 13.4323 91.6641 14.5293L93.2723 19.5416L92.1297 19.9081L89.6025 12.0316L90.7451 11.6651L91.1509 12.9296C91.3391 11.9451 92.1643 11.0083 93.2765 10.6515Z" fill="white"/>
<path d="M115.279 8.55235C115.23 8.16072 115.291 7.87363 115.462 7.69109C115.632 7.50855 115.85 7.40076 116.115 7.36774C116.39 7.3334 116.633 7.38372 116.843 7.51871C117.064 7.65238 117.199 7.91503 117.248 8.30666C117.295 8.6877 117.229 8.97545 117.049 9.1699C116.88 9.36303 116.657 9.47676 116.382 9.5111C116.118 9.54413 115.879 9.48785 115.668 9.34227C115.456 9.1967 115.327 8.93339 115.279 8.55235Z" fill="white"/>
<path d="M140.867 13.5908C137.834 13.3896 135.42 10.6158 135.625 7.53461C135.829 4.45338 138.587 2.03857 141.62 2.23971C143.137 2.34029 144.499 3.07204 145.452 4.17752L144.549 4.98351C143.807 4.08444 142.741 3.46859 141.544 3.38919C139.181 3.23251 137.048 5.17561 136.886 7.61825C136.723 10.0768 138.581 12.2846 140.943 12.4413C142.141 12.5207 143.278 12.0509 144.133 11.2577L144.922 12.1759C143.832 13.1299 142.384 13.6913 140.867 13.5908Z" fill="white"/>
<path d="M155.048 15.5148C152.773 15.0569 151.236 12.7236 151.7 10.4179C152.164 8.11217 154.482 6.57125 156.757 7.02908C159.031 7.48691 160.556 9.80139 160.092 12.1071C159.628 14.4128 157.322 15.9726 155.048 15.5148ZM155.259 14.4638C156.859 14.7859 158.502 13.5987 158.853 11.8577C159.2 10.1323 158.145 8.40205 156.545 8.07999C154.929 7.75477 153.287 8.94195 152.939 10.6673C152.589 12.4084 153.644 14.1386 155.259 14.4638Z" fill="white"/>
<path d="M177.956 13.1395C179.58 13.7282 180.271 15.3909 179.633 17.1509L177.839 22.0998L176.711 21.691L178.451 16.8925C178.908 15.629 178.493 14.4744 177.44 14.0928C176.207 13.6459 175.034 14.1571 174.609 15.3304L172.815 20.2793L171.687 19.8705L173.426 15.072C173.884 13.8084 173.469 12.6538 172.416 12.2723C171.182 11.8253 170.01 12.3365 169.585 13.5098L167.791 18.4588L166.663 18.05L169.481 10.2731L170.61 10.6819L170.195 11.8251C170.881 11.1545 171.909 10.9483 172.931 11.319C174.105 11.7441 174.788 12.7234 174.844 13.8839C175.525 12.9905 176.782 12.7143 177.956 13.1395Z" fill="white"/>
<path d="M189.902 17.0333C189.502 16.8313 189.354 16.3442 189.549 15.9586C189.737 15.5873 190.217 15.4175 190.617 15.6195C191.002 15.8142 191.15 16.3013 190.963 16.6726C190.768 17.0582 190.288 17.228 189.902 17.0333ZM184.952 25.485L188.681 18.1016L189.753 18.6426L186.023 26.0259L184.952 25.485Z" fill="white"/>
<path d="M200.606 24.6293C202.144 25.6089 202.511 27.4165 201.505 28.9954L198.677 33.4353L197.665 32.7908L200.407 28.4859C201.129 27.3523 200.921 26.1006 199.895 25.4475C198.721 24.6999 197.211 24.8958 196.592 25.8674L193.765 30.3073L192.752 29.6628L197.196 22.6858L198.208 23.3303L197.495 24.4504C198.373 23.966 199.621 24.0019 200.606 24.6293Z" fill="white"/>
<path d="M215.192 35.7096L216.113 36.4783L211.377 42.1537C210.014 43.7875 207.76 43.866 205.929 42.3388C204.897 41.4778 204.236 40.3221 204.069 39.349L205.079 38.9625C205.181 39.8393 205.707 40.7573 206.493 41.4133C207.955 42.633 209.42 42.6257 210.456 41.385L211.317 40.3531C210.179 40.717 208.979 40.5073 207.972 39.6669C206.264 38.2422 206.093 35.9744 207.569 34.2055C209.046 32.4366 211.297 32.2106 213.005 33.6353C214.013 34.4757 214.434 35.619 214.279 36.8029L215.192 35.7096ZM208.83 38.9873C210.084 40.0328 211.727 39.8617 212.803 38.5719C213.869 37.2943 213.743 35.6473 212.49 34.6018C211.249 33.5666 209.606 33.7377 208.54 35.0152C207.464 36.3051 207.59 37.9521 208.83 38.9873Z" fill="white"/>
<path d="M225.013 58.133C224.296 57.232 223.836 55.9617 223.844 54.6875L224.921 54.6273C224.971 55.7943 225.284 56.7519 225.852 57.4652C226.53 58.3162 227.389 58.5729 228.002 58.0845C228.703 57.5263 228.33 56.596 227.883 55.5207C227.087 53.5975 227.072 52.6281 227.998 51.8905C229.174 50.9535 230.678 51.3515 231.705 52.6405C232.343 53.4414 232.726 54.4866 232.823 55.5337L231.738 55.6613C231.633 54.6817 231.325 53.884 230.866 53.3083C230.288 52.5825 229.484 52.2409 228.858 52.7393C228.295 53.1879 228.499 53.803 229.068 55.3133C229.57 56.6112 230.077 57.9665 228.85 58.9433C227.661 59.8902 226.08 59.4721 225.013 58.133Z" fill="white"/>
<path d="M232.882 69.2954C231.664 67.3208 232.32 64.6045 234.322 63.3701C236.324 62.1357 239.032 62.7779 240.25 64.7525C241.468 66.7271 240.817 69.4214 238.815 70.6558C236.813 71.8902 234.1 71.27 232.882 69.2954ZM233.794 68.7328C234.651 70.1218 236.64 70.512 238.152 69.5799C239.65 68.6563 240.194 66.7042 239.337 65.3151C238.472 63.9124 236.483 63.5222 234.985 64.4459C233.473 65.378 232.929 67.3301 233.794 68.7328Z" fill="white"/>
<path d="M240.279 83.1591C239.333 81.0409 240.341 78.435 242.489 77.4758C244.636 76.5166 247.236 77.5108 248.182 79.629C249.129 81.7472 248.128 84.332 245.981 85.2912C243.833 86.2504 241.225 85.2773 240.279 83.1591ZM241.258 82.7219C241.924 84.212 243.844 84.8614 245.465 84.1371C247.072 83.4193 247.869 81.5562 247.204 80.0662C246.531 78.5615 244.611 77.9121 243.004 78.6298C241.383 79.3541 240.586 81.2173 241.258 82.7219Z" fill="white"/>
<path d="M254.1 95.4883C254.625 97.2352 253.721 98.8431 251.928 99.3816L246.887 100.896L246.541 99.7465L251.43 98.2783C252.717 97.8917 253.377 96.808 253.027 95.6435C252.627 94.3103 251.356 93.4725 250.252 93.8039L245.211 95.3181L244.866 94.1688L252.788 91.7894L253.133 92.9386L251.861 93.3206C252.842 93.5272 253.764 94.3697 254.1 95.4883Z" fill="white"/>
<path d="M255.79 117.522C256.182 117.48 256.468 117.546 256.648 117.721C256.827 117.895 256.931 118.114 256.959 118.379C256.988 118.655 256.933 118.897 256.794 119.105C256.657 119.323 256.391 119.453 255.999 119.495C255.617 119.535 255.331 119.464 255.14 119.28C254.95 119.107 254.84 118.883 254.811 118.607C254.783 118.342 254.843 118.105 254.993 117.896C255.142 117.687 255.408 117.562 255.79 117.522Z" fill="white"/>
<path d="M250.276 143.009C250.534 139.98 253.352 137.618 256.429 137.88C259.506 138.141 261.869 140.944 261.611 143.973C261.483 145.487 260.726 146.836 259.602 147.768L258.813 146.85C259.726 146.125 260.362 145.071 260.464 143.875C260.664 141.516 258.761 139.347 256.322 139.139C253.867 138.93 251.625 140.747 251.424 143.106C251.322 144.302 251.771 145.448 252.548 146.317L251.615 147.089C250.682 145.982 250.147 144.523 250.276 143.009Z" fill="white"/>
<path d="M248.088 157.149C248.589 154.883 250.95 153.389 253.247 153.896C255.544 154.403 257.041 156.749 256.541 159.015C256.041 161.28 253.698 162.762 251.401 162.255C249.105 161.748 247.588 159.414 248.088 157.149ZM249.135 157.38C248.783 158.974 249.94 160.638 251.674 161.021C253.393 161.4 255.142 160.377 255.494 158.784C255.849 157.174 254.693 155.51 252.974 155.131C251.24 154.748 249.491 155.771 249.135 157.38Z" fill="white"/>
<path d="M250.036 180.093C249.417 181.707 247.741 182.366 245.993 181.696L241.078 179.811L241.508 178.691L246.274 180.518C247.529 181 248.691 180.606 249.092 179.56C249.562 178.335 249.073 177.154 247.908 176.707L242.993 174.822L243.423 173.701L248.188 175.529C249.443 176.01 250.605 175.616 251.006 174.571C251.476 173.346 250.987 172.164 249.822 171.717L244.907 169.832L245.337 168.712L253.06 171.674L252.63 172.794L251.495 172.359C252.153 173.057 252.34 174.088 251.95 175.104C251.503 176.269 250.511 176.934 249.35 176.968C250.23 177.666 250.483 178.928 250.036 180.093Z" fill="white"/>
<path d="M245.92 191.962C246.129 191.566 246.619 191.427 247.001 191.629C247.369 191.823 247.529 192.306 247.32 192.703C247.118 193.084 246.628 193.224 246.26 193.029C245.879 192.827 245.718 192.344 245.92 191.962ZM237.561 186.856L244.874 190.722L244.313 191.783L237 187.917L237.561 186.856Z" fill="white"/>
<path d="M238.125 202.521C237.116 204.041 235.302 204.374 233.742 203.339L229.355 200.43L230.018 199.43L234.272 202.251C235.392 202.994 236.647 202.809 237.32 201.795C238.089 200.635 237.921 199.123 236.961 198.486L232.574 195.577L233.238 194.577L240.132 199.149L239.468 200.149L238.361 199.415C238.829 200.301 238.77 201.548 238.125 202.521Z" fill="white"/>
<path d="M226.773 216.896L225.987 217.803L220.4 212.963C218.791 211.569 218.755 209.315 220.316 207.513C221.196 206.498 222.364 205.858 223.341 205.709L223.708 206.726C222.83 206.812 221.902 207.32 221.231 208.094C219.984 209.533 219.964 210.998 221.186 212.056L222.201 212.936C221.859 211.792 222.091 210.596 222.95 209.604C224.406 207.924 226.677 207.795 228.419 209.304C230.16 210.813 230.344 213.068 228.888 214.748C228.028 215.74 226.877 216.14 225.696 215.963L226.773 216.896ZM223.614 210.476C222.545 211.709 222.685 213.355 223.955 214.455C225.213 215.544 226.862 215.449 227.931 214.216C228.989 212.995 228.849 211.349 227.591 210.259C226.321 209.159 224.672 209.254 223.614 210.476Z" fill="white"/>
<path d="M204.167 226.296C205.081 225.595 206.36 225.16 207.634 225.191L207.674 226.269C206.506 226.297 205.543 226.592 204.819 227.147C203.955 227.809 203.683 228.663 204.16 229.285C204.705 229.996 205.642 229.641 206.726 229.213C208.663 228.454 209.633 228.456 210.354 229.396C211.269 230.59 210.843 232.085 209.535 233.088C208.722 233.711 207.67 234.074 206.621 234.152L206.513 233.065C207.495 232.978 208.298 232.685 208.883 232.237C209.619 231.672 209.976 230.875 209.489 230.24C209.051 229.669 208.432 229.861 206.911 230.402C205.604 230.879 204.239 231.361 203.285 230.116C202.36 228.91 202.808 227.338 204.167 226.296Z" fill="white"/>
<path d="M192.858 233.953C194.855 232.773 197.559 233.479 198.756 235.503C199.953 237.528 199.261 240.223 197.264 241.404C195.267 242.585 192.585 241.884 191.387 239.86C190.19 237.835 190.861 235.134 192.858 233.953ZM193.403 234.876C191.999 235.707 191.571 237.688 192.475 239.216C193.371 240.731 195.313 241.312 196.718 240.481C198.137 239.643 198.564 237.662 197.668 236.147C196.764 234.618 194.822 234.037 193.403 234.876Z" fill="white"/>
<path d="M178.857 241.09C180.992 240.183 183.579 241.24 184.499 243.405C185.418 245.57 184.376 248.151 182.24 249.057C180.105 249.964 177.539 248.915 176.619 246.75C175.7 244.585 176.721 241.996 178.857 241.09ZM179.276 242.076C177.774 242.714 177.089 244.622 177.783 246.256C178.471 247.876 180.319 248.708 181.821 248.07C183.338 247.426 184.023 245.519 183.335 243.899C182.641 242.264 180.793 241.433 179.276 242.076Z" fill="white"/>
<path d="M166.271 254.677C164.515 255.169 162.924 254.236 162.418 252.433L160.998 247.365L162.153 247.041L163.531 251.956C163.894 253.25 164.965 253.93 166.136 253.602C167.476 253.226 168.337 251.971 168.027 250.862L166.606 245.794L167.761 245.47L169.994 253.435L168.838 253.759L168.48 252.48C168.255 253.457 167.396 254.362 166.271 254.677Z" fill="white"/>
<path d="M144.206 255.956C144.24 256.35 144.169 256.634 143.991 256.81C143.814 256.986 143.592 257.086 143.327 257.109C143.05 257.133 142.81 257.074 142.604 256.931C142.389 256.789 142.264 256.522 142.229 256.129C142.196 255.746 142.273 255.461 142.46 255.274C142.636 255.087 142.863 254.981 143.139 254.957C143.405 254.934 143.641 254.999 143.847 255.153C144.053 255.306 144.172 255.574 144.206 255.956Z" fill="white"/>
</svg>
